<svg width="201" height="41" viewBox="0 0 201 41" fill="none" xmlns="http://www.w3.org/2000/svg">
<path d="M30.1224 18.1554C28.9867 19.2896 28.4191 20.8672 28.5741 22.4591L28.5474 22.4326C28.7067 24.3059 28.026 26.1536 26.6868 27.4829C25.3476 28.8122 23.4862 29.4879 21.599 29.3298L21.6257 29.3562C19.3407 29.1451 17.1678 30.3788 16.1926 32.4408C15.2175 34.5028 15.6496 36.9503 17.273 38.5603C18.8965 40.1703 21.3626 40.597 23.439 39.6272C25.5155 38.6574 26.7564 36.4994 26.5417 34.2315L26.5698 34.2579C26.4105 32.3847 27.0912 30.537 28.4304 29.2077C29.7696 27.8784 31.631 27.2027 33.5182 27.3608L33.4901 27.3344C36.0013 27.5585 38.338 26.0386 39.1334 23.6637C39.9288 21.2887 38.9739 18.6827 36.8273 17.3698C34.6807 16.057 31.9063 16.3822 30.1269 18.1554H30.1224Z" fill="#5454D4"/>
<path d="M19.2025 25.8914L19.1744 25.8649C20.779 26.0254 22.3715 25.4622 23.5124 24.3306C24.6532 23.199 25.2219 21.6187 25.0614 20.0257L25.0895 20.0522C24.9302 18.1789 25.611 16.3312 26.9501 15.002C28.2893 13.6727 30.1508 12.997 32.0379 13.1551L32.0098 13.1286C34.2949 13.3416 36.4692 12.1093 37.4458 10.0476C38.4224 7.98585 37.9916 5.53762 36.3687 3.92665C34.7457 2.31569 32.2793 1.88802 30.2022 2.85742C28.1252 3.82682 26.8837 5.98506 27.0983 8.25333L27.0716 8.22542C27.2315 10.0988 26.5509 11.9468 25.2116 13.2762C23.8723 14.6057 22.0105 15.2812 20.1232 15.1225L20.1499 15.1505C18.5452 14.99 16.9527 15.5532 15.8118 16.6848C14.671 17.8164 14.1023 19.3967 14.2628 20.9896L14.2362 20.9632C14.395 22.8363 13.7141 24.6837 12.375 26.0129C11.0359 27.342 9.17482 28.0179 7.28778 27.8603L7.31442 27.8868C5.02929 27.6737 2.855 28.9061 1.87839 30.9678C0.90178 33.0295 1.33263 35.4778 2.95557 37.0887C4.57852 38.6997 7.04495 39.1274 9.122 38.158C11.199 37.1886 12.4406 35.0303 12.226 32.7621L12.2541 32.7885C12.0948 30.9153 12.7755 29.0676 14.1147 27.7383C15.4539 26.409 17.3153 25.7333 19.2025 25.8914V25.8914Z" fill="#FF7143"/>
<path d="M9.28171 22.9425C10.4177 21.8084 10.9848 20.2305 10.8286 18.6388L10.8567 18.6652C10.6973 16.7914 11.3784 14.9432 12.7183 13.6138C14.0581 12.2844 15.9204 11.6091 17.8081 11.7681L17.78 11.7417C20.0643 11.9541 22.2375 10.7218 23.2135 8.66077C24.1896 6.5997 23.7587 4.15244 22.1364 2.54207C20.5141 0.931697 18.0486 0.504053 15.9722 1.47286C13.8958 2.44167 12.6544 4.59888 12.8684 6.86636L12.8418 6.83991C13.0011 8.71316 12.3203 10.5609 10.9812 11.8902C9.64198 13.2195 7.78054 13.8952 5.89336 13.737L5.92001 13.7635C3.40888 13.5399 1.07266 15.0602 0.277732 17.4352C-0.517197 19.8101 0.437973 22.4159 2.58459 23.7285C4.73121 25.041 7.50542 24.7156 9.28467 22.9425H9.28171Z" fill="#5454D4"/>
<path d="M55.1361 8.28735H59.5325V29.5238H55.1361V8.28735Z" fill="#19191B"/>
<path fill-rule="evenodd" clip-rule="evenodd" d="M66.7954 15.1071C63.8941 16.3101 62.0098 19.1308 62.0223 22.2519C62.0071 24.2984 62.8215 26.265 64.2823 27.7092C65.7432 29.1535 67.7277 29.954 69.7893 29.9307C72.9336 29.9306 75.7677 28.0489 76.968 25.1642C78.1683 22.2795 77.4981 18.961 75.2703 16.7585C73.0425 14.556 69.6967 13.904 66.7954 15.1071ZM69.7269 18.9979C71.5768 18.964 73.1087 20.416 73.1599 22.2519C73.2098 23.162 72.874 24.0514 72.2338 24.7048C71.5936 25.3582 70.7072 25.716 69.7893 25.6916C67.9391 25.6918 66.4343 24.212 66.4172 22.3755C66.4001 20.539 67.877 19.0318 69.7269 18.9979Z" fill="#19191B"/>
<path fill-rule="evenodd" clip-rule="evenodd" d="M95.0783 28.7905V14.9786L90.7988 14.9757V16.4597C89.7549 15.1918 88.1672 14.4902 86.5194 14.5687C82.4997 14.6945 79.3069 17.9654 79.3069 21.9573C79.3069 25.9492 82.4997 29.2201 86.5194 29.3459C88.1672 29.4244 89.7549 28.7228 90.7988 27.4549V28.7846C90.8724 29.662 90.5403 30.525 89.8963 31.1303C89.2522 31.7356 88.366 32.0175 87.4875 31.8967C86.0978 32.0375 84.7661 31.3072 84.1465 30.0644L80.3955 32.217C81.863 34.5904 84.5432 35.9513 87.3409 35.7435C91.2385 35.7435 95.0783 33.6776 95.0783 28.7905ZM88.7112 18.5979C90.0337 19.1899 90.8608 20.5207 90.8003 21.9595C90.8277 22.8886 90.458 23.7858 89.7826 24.4296C89.1073 25.0734 88.1892 25.4037 87.2551 25.339C85.8043 25.3407 84.4982 24.4667 83.9557 23.131C83.4133 21.7954 83.7436 20.2665 84.79 19.2691C85.8364 18.2716 87.3887 18.0059 88.7112 18.5979Z" fill="#19191B"/>
<path fill-rule="evenodd" clip-rule="evenodd" d="M102.341 15.1071C99.4399 16.3101 97.5555 19.1308 97.5681 22.2519C97.5529 24.2984 98.3673 26.265 99.8281 27.7092C101.289 29.1535 103.273 29.954 105.335 29.9307C108.479 29.9306 111.313 28.0489 112.514 25.1642C113.714 22.2795 113.044 18.961 110.816 16.7585C108.588 14.556 105.243 13.904 102.341 15.1071ZM105.273 18.9979C107.123 18.964 108.654 20.416 108.706 22.2519C108.756 23.162 108.42 24.0514 107.78 24.7048C107.139 25.3582 106.253 25.716 105.335 25.6916C103.485 25.6918 101.98 24.212 101.963 22.3755C101.946 20.539 103.423 19.0318 105.273 18.9979Z" fill="#19191B"/>
<path fill-rule="evenodd" clip-rule="evenodd" d="M116.781 8.66142C115.795 9.0667 115.152 10.0215 115.152 11.0805C115.167 12.5206 116.339 13.6845 117.79 13.6989C118.857 13.6989 119.819 13.0609 120.227 12.0825C120.635 11.1041 120.41 9.97787 119.655 9.22902C118.901 8.48017 117.766 8.25615 116.781 8.66142ZM119.994 14.9787H115.596L115.59 29.5253H119.994V14.9787Z" fill="#19191B"/>
<path fill-rule="evenodd" clip-rule="evenodd" d="M137.084 27.5371C138.398 26.0958 139.08 24.1936 138.977 22.2519C139.081 20.3098 138.399 18.407 137.085 16.9653C135.77 15.5236 133.93 14.662 131.973 14.5716C130.323 14.4823 128.72 15.1334 127.607 16.3451V14.9786H123.211V35.3423H127.607V28.1557C128.72 29.3683 130.323 30.02 131.973 29.9307C133.929 29.8399 135.769 28.9784 137.084 27.5371ZM131.036 18.8772C132.951 18.8454 134.533 20.3518 134.581 22.2518C134.647 23.1961 134.304 24.1236 133.639 24.8013C132.973 25.4789 132.047 25.8424 131.095 25.8003C129.18 25.8005 127.623 24.2683 127.607 22.3677C127.591 20.4671 129.122 18.909 131.036 18.8772Z" fill="#19191B"/>
<path d="M152.544 25.1598C152.544 28.5055 149.614 29.9308 146.45 29.9308C143.833 30.166 141.337 28.7945 140.148 26.469L143.957 24.3164C144.274 25.399 145.311 26.1143 146.444 26.0326C147.498 26.0326 148.026 25.7123 148.026 25.1319C148.026 23.5303 140.816 24.3752 140.816 19.3426C140.816 16.1703 143.513 14.5717 146.561 14.5717C148.894 14.4984 151.083 15.6906 152.275 17.6838L148.524 19.6909C148.187 18.9119 147.414 18.408 146.561 18.4111C145.798 18.4111 145.329 18.705 145.329 19.2251C145.335 20.884 152.544 19.7776 152.544 25.1598Z" fill="#19191B"/>
<path d="M168.603 14.9788V29.5253H164.207V28.1573C163.178 29.3818 161.62 30.042 160.018 29.9323C157.057 29.9323 154.541 27.8385 154.541 23.908V14.9788H158.937V23.2688C158.863 23.97 159.103 24.6682 159.594 25.1778C160.085 25.6873 160.777 25.9564 161.486 25.9136C163.098 25.9136 164.211 24.9835 164.211 22.9176V14.9832L168.603 14.9788Z" fill="#19191B"/>
<path d="M193.812 20.593V29.5237H189.416V20.9706C189.416 19.516 188.713 18.5859 187.307 18.5859C185.841 18.5859 185.02 19.6041 185.02 21.3203V29.5237H180.625V20.9706C180.625 19.516 179.922 18.5859 178.514 18.5859C177.048 18.5859 176.228 19.6041 176.228 21.3203V29.5237H171.832V14.9772H176.228V16.3143C177.154 15.109 178.633 14.4522 180.155 14.5702C181.686 14.4959 183.143 15.2244 183.994 16.4891C184.984 15.167 186.589 14.4423 188.244 14.5702C191.608 14.5716 193.812 16.9564 193.812 20.593Z" fill="#19191B"/>
<path d="M197.531 14.889C199.333 14.889 200.793 13.4391 200.793 11.6506C200.793 9.86201 199.333 8.41211 197.531 8.41211C195.729 8.41211 194.268 9.86201 194.268 11.6506C194.268 13.4391 195.729 14.889 197.531 14.889Z" fill="#19191B"/>
</svg>
